<?xml version="1.0" standalone="no"?>
<!DOCTYPE svg PUBLIC "-//W3C//DTD SVG 20010904//EN"
 "http://www.w3.org/TR/2001/REC-SVG-20010904/DTD/svg10.dtd">
<svg version="1.0" xmlns="http://www.w3.org/2000/svg"
 width="822.000000pt" height="822.000000pt" viewBox="0 0 822.000000 822.000000"
 preserveAspectRatio="xMidYMid meet">
<metadata>
Created by potrace 1.11, written by Peter Selinger 2001-2013
</metadata>
<g transform="translate(0.000000,822.000000) scale(0.100000,-0.100000)"
fill="#000000" stroke="none">
<path d="M6353 8188 c-12 -24 -86 -226 -98 -266 -7 -23 -6 -23 -95 -1 -19 4
-53 11 -75 14 -22 4 -47 8 -55 10 -113 32 -478 49 -680 32 -949 -80 -1788
-668 -2188 -1534 -46 -101 -172 -435 -172 -459 0 -7 3 -13 8 -12 8 2 56 -6
195 -33 53 -10 112 -21 130 -24 17 -3 48 -10 67 -15 19 -5 50 -12 69 -15 19
-3 37 -8 41 -10 3 -2 17 -6 31 -9 139 -30 450 -135 597 -202 29 -13 55 -24 58
-24 10 0 254 -121 331 -164 l78 -44 160 -6 c88 -3 171 -7 185 -10 14 -2 50 -7
80 -10 77 -9 265 -47 280 -56 10 -6 -45 -168 -229 -677 -133 -367 -246 -677
-251 -688 -9 -20 -113 -305 -148 -405 -34 -98 -202 -556 -217 -595 -4 -11 -9
-24 -11 -30 -1 -5 -41 -116 -89 -245 -48 -129 -103 -281 -123 -337 l-37 -103
-155 -1 c-224 -1 -407 -11 -630 -35 -30 -3 -68 -7 -85 -9 -16 -3 -68 -9 -115
-15 -104 -14 -112 -15 -230 -35 -52 -9 -104 -18 -115 -20 -263 -42 -727 -171
-1078 -299 -239 -88 -704 -301 -907 -417 -140 -80 -190 -110 -190 -117 0 -4
26 -18 58 -32 84 -36 206 -108 347 -205 68 -47 142 -92 164 -99 49 -18 185
-17 229 1 18 7 108 64 200 126 259 174 452 259 702 308 98 20 147 23 330 24
229 0 273 -4 416 -34 232 -50 395 -124 661 -302 90 -60 178 -115 197 -123 23
-9 64 -13 127 -12 109 3 94 -3 319 147 135 91 222 140 360 203 74 33 254 85
345 100 17 2 49 7 73 11 90 14 384 21 439 11 12 -3 50 -7 84 -11 35 -4 66 -8
69 -10 3 -2 23 -6 45 -10 22 -4 45 -8 50 -9 150 -38 315 -103 445 -177 30 -17
122 -75 203 -130 81 -55 165 -106 186 -114 52 -18 177 -17 226 3 22 9 112 64
200 123 160 107 323 199 351 199 35 0 2 26 -121 96 -441 252 -1068 514 -1485
619 -8 2 -78 20 -155 41 -77 20 -153 38 -168 40 -16 2 -32 6 -37 9 -4 3 -25 7
-46 11 -22 3 -55 9 -74 14 -19 5 -51 11 -70 14 -19 3 -47 8 -62 11 -16 3 -40
7 -55 10 -29 5 -285 43 -338 49 -16 3 -66 7 -110 11 -44 4 -83 10 -86 14 -4 3
26 96 66 206 153 420 592 1624 702 1925 63 173 132 362 153 420 92 259 132
366 140 374 12 12 269 -130 355 -196 6 -4 52 -41 103 -80 148 -116 148 -115
225 -128 111 -19 357 -83 517 -135 277 -91 546 -214 870 -398 63 -36 118 -63
122 -59 11 12 125 334 156 442 31 108 59 234 68 305 3 22 7 50 9 62 13 60 20
187 20 363 -1 229 -8 315 -47 505 -103 515 -353 982 -722 1351 -209 209 -425
366 -686 498 -30 16 -56 29 -58 31 -2 2 68 200 88 250 25 59 24 62 -32 80 -29
10 -66 23 -83 30 -16 7 -86 33 -155 58 -69 25 -132 48 -141 52 -10 4 -19 -2
-26 -17z"/>
<path d="M1700 5818 c-34 -68 -66 -127 -70 -133 -4 -5 -42 -77 -85 -160 -43
-82 -83 -155 -89 -162 -8 -8 -80 32 -286 163 -151 95 -278 174 -282 174 -3 0
-5 -28 -3 -62 2 -35 7 -139 10 -233 3 -93 8 -215 10 -271 l4 -101 -37 3 c-41
2 -272 12 -491 20 l-144 5 24 -39 c13 -21 49 -78 79 -126 30 -47 62 -98 70
-111 8 -14 52 -84 98 -156 46 -72 80 -135 75 -139 -4 -4 -42 -26 -83 -48 -122
-64 -288 -152 -392 -206 -54 -28 -98 -53 -98 -56 0 -5 79 -53 90 -55 6 -1 95
-47 142 -73 18 -10 104 -56 191 -101 86 -45 157 -86 157 -89 -1 -4 -30 -52
-65 -107 -35 -55 -89 -140 -120 -190 -31 -49 -79 -126 -106 -169 -28 -44 -51
-84 -52 -89 -1 -6 27 -9 68 -7 155 6 198 8 392 15 l202 7 -4 -93 c-2 -52 -7
-175 -10 -274 -3 -99 -8 -206 -10 -237 -2 -32 0 -58 4 -58 7 0 217 130 448
277 81 52 114 68 121 60 5 -7 45 -82 89 -167 45 -85 97 -184 116 -220 19 -36
49 -93 67 -128 18 -35 36 -60 40 -55 4 4 30 51 58 103 110 211 241 460 248
472 3 4 62 -29 132 -74 70 -44 139 -88 154 -97 15 -9 78 -48 141 -88 161 -102
148 -104 143 13 -3 55 -8 173 -11 264 -3 91 -8 196 -10 234 l-4 68 177 -6
c393 -15 467 -18 474 -22 4 -2 9 0 12 4 4 7 -44 91 -104 182 -49 74 -90 142
-90 150 0 4 -3 10 -8 12 -7 3 -142 214 -142 223 0 2 30 20 68 38 37 18 92 47
122 64 30 17 132 70 225 118 94 49 171 89 173 91 4 2 -92 54 -273 149 -212
111 -300 157 -308 165 -4 4 71 132 168 284 96 152 175 279 175 282 0 3 -64 3
-142 0 -199 -8 -435 -18 -484 -20 l-40 -2 2 71 c3 101 14 384 20 498 2 53 2
97 -1 97 -6 0 -285 -174 -480 -298 -43 -28 -82 -49 -86 -46 -4 2 -26 41 -49
86 -23 46 -55 106 -70 133 -15 28 -60 113 -100 190 -40 77 -78 148 -85 158
-11 15 -20 2 -75 -105z m239 -775 c157 -30 331 -123 451 -243 261 -263 330
-658 174 -998 -82 -176 -251 -341 -436 -426 -295 -135 -650 -90 -912 114 -11
8 -47 42 -81 76 -280 279 -331 730 -122 1070 144 234 352 368 647 418 53 8
205 3 279 -11z"/>
<path d="M0 731 l0 -238 78 -6 c84 -7 95 -9 161 -27 78 -21 150 -59 304 -164
84 -56 177 -116 207 -133 81 -46 218 -99 302 -117 40 -9 87 -19 103 -22 17 -4
102 -8 190 -9 157 -3 268 8 365 36 25 7 50 13 55 14 29 6 177 70 225 97 30 17
116 73 191 124 255 174 345 205 579 199 224 -5 288 -29 553 -209 313 -212 488
-267 827 -261 308 5 481 65 782 271 229 157 314 191 503 200 133 7 261 -9 348
-43 60 -24 141 -72 301 -181 182 -124 334 -194 476 -221 30 -6 69 -13 85 -17
17 -3 102 -8 190 -9 327 -7 511 52 834 269 94 64 196 127 226 140 87 40 194
63 303 65 l32 1 0 240 -1 240 -68 0 c-150 0 -358 -53 -511 -130 -44 -22 -150
-88 -236 -146 -245 -166 -328 -197 -539 -198 -241 -1 -330 30 -561 192 -233
163 -390 232 -611 270 -76 13 -317 14 -403 2 -119 -17 -130 -19 -220 -50 -133
-44 -212 -86 -395 -209 -199 -134 -263 -166 -382 -191 -86 -17 -293 -21 -350
-6 -13 3 -33 8 -44 11 -93 20 -160 55 -354 185 -210 141 -319 195 -475 234
-191 47 -438 48 -662 1 -122 -25 -285 -106 -484 -241 -243 -165 -327 -196
-534 -198 -157 -1 -237 11 -325 49 -16 7 -37 16 -45 19 -19 7 -22 9 -215 137
-88 59 -193 123 -233 144 -149 74 -356 125 -509 125 l-63 0 0 -239z"/>
</g>
</svg>
