<svg xmlns="http://www.w3.org/2000/svg" version="1.2" viewBox="-49 141 512 512"><g fill="#57be41"><path d="M-25 637H7a8 8 0 0 0 8-8v-24h240v24a8 8 0 0 0 8 8h32a8 8 0 0 0 8-8V501a40 40 0 0 0-32-39.2V389a24 24 0 0 0-24-24H23a24 24 0 0 0-24 24v72.8A40 40 0 0 0-33 501v128a8 8 0 0 0 8 8zm312-16h-16v-24a8 8 0 0 0-8-8H7a8 8 0 0 0-8 8v24h-16v-64h304v64zM15 389a8 8 0 0 1 8-8h224a8 8 0 0 1 8 8v72h-16v-32a24 24 0 0 0-24-24h-48a24 24 0 0 0-24 24v32h-16v-32a24 24 0 0 0-24-24H55a24 24 0 0 0-24 24v32H15v-72zm208 72h-64v-32a8 8 0 0 1 8-8h48a8 8 0 0 1 8 8v32zm-112 0H47v-32a8 8 0 0 1 8-8h48a8 8 0 0 1 8 8v32zm-128 40a24 24 0 0 1 24-24h256a24 24 0 0 1 24 24v40H-17v-40zM439 461H327a8 8 0 0 0-8 8v120h16v-48h96v48h16V469a8 8 0 0 0-8-8zm-104 64v-48h96v48h-96z"/><path d="M367 493h32v16h-32zM415 405a8 8 0 0 0 7.6-10.5l-16-48a8 8 0 0 0-7.6-5.5h-32a8 8 0 0 0-7.6 5.5l-16 48A8 8 0 0 0 351 405h24v24h-16v16h48v-16h-16v-24h24zm-42.2-48h20.4l10.7 32h-41.8l10.7-32z"/><path d="M442.3 261.7l-232-104a8 8 0 0 0-6.6 0l-232 104A8 8 0 0 0-33 269v96h16v-90.8l224-100.4 224 100.4V365h16v-96a8 8 0 0 0-4.7-7.3z"/><path d="M151 277a56 56 0 1 0 111.2-9.3l-15.8 2.6a40 40 0 1 1-26.1-31l5.4-15.1A55.8 55.8 0 0 0 151 277z"/><path d="M196.7 263.3l-11.4 11.4 16 16a8 8 0 0 0 11.4 0l56-56-11.4-11.4-50.3 50.4-10.3-10.4z"/></g></svg>