<svg xmlns="http://www.w3.org/2000/svg" version="1.2" viewBox="-49 141 512 512"><path d="M310 241a10 10 0 1 0 0-20 10 10 0 0 0 0 20z" fill="#57be41"/><path d="M-40.6 320.9a10 10 0 0 0 11.2-7.1l.5-1.8c4.2-4.1 24.3-11 52.9-11 30 0 47.2 7.4 50 10.9a10 10 0 0 0 10 9.1c5 0 9.3-3.8 10-8.8 3.6-4.1 24-11.2 53-11.2 30 0 47 7.4 50 10.9V427H87a30 30 0 1 0 0 60h90v146H97v-67.7A30 30 0 0 0 87 507H-9v-90a10 10 0 1 0-20 0v91.7a30 30 0 0 0 0 56.6V633h-10a10 10 0 1 0 0 20h492a10 10 0 1 0 0-20h-10v-67.7a30 30 0 0 0 0-56.6V417a10 10 0 1 0-20 0v90h-96a30 30 0 0 0-10 58.3V633h-80V487h90a30 30 0 1 0 0-60H217V312.1c3.9-4.1 24.2-11.1 53-11.1 30 0 47.2 7.5 50 10.9a10 10 0 0 0 11 9h.3a10 10 0 0 0 8.7-9c2.8-3.5 20-10.9 50-10.9 28.5 0 48.6 6.8 52.8 11l.6 1.9c1.8 6 8.7 8.9 14.3 6 6-3.3 6.6-10.5 3.4-16.6C429 203.3 319.3 141.6 208.6 141h-3.1-.1c-111.7.6-220.7 63.1-252.5 162.3-4.2 8.2-1.2 16.3 6.5 17.6zM-19 527H87a10 10 0 0 1 0 20H-19a10 10 0 0 1 0-20zm10 40h86v66H-9v-66zm336-40h106a10 10 0 0 1 0 20H327a10 10 0 0 1 0-20zm10 40h86v66h-86v-66zm-120 66h-20V487h20v146zm120-176a10 10 0 0 1-10 10H87a10 10 0 0 1 0-20h240a10 10 0 0 1 10 10zM147 281c-14 0-34 1.8-49.5 7.1 6.5-32.4 19.2-62 36.7-84.7 18.3-23.8 40.3-38.3 62.8-41.6V289c-13.3-5.4-31.7-8-50-8zm285.5 5c-12.9-3.4-28.2-5-42.5-5a132 132 0 0 0-53.3 9.4c-1.4-6.3-3-12.5-4.5-18.5-.5-1.7-1-3.3-1.3-5a10 10 0 0 0-19.4 5 1533.5 1533.5 0 0 0 4 15.4A151.8 151.8 0 0 0 270 281a158 158 0 0 0-53 8.5V161.7c23.4 3.4 46.6 18.4 63.4 41.5a10 10 0 1 0 16.2-11.8 137 137 0 0 0-19.6-21.7c69.4 17.7 127.9 60.7 155.5 116.4zm-294-116.6c-33.8 30-53.9 76.3-61.7 120.8A133.4 133.4 0 0 0 24 281c-14.3 0-29.6 1.6-42.5 5 27.8-56 86.9-99.2 157-116.6z" fill="#57be41"/></svg>