<svg xmlns="http://www.w3.org/2000/svg" version="1.2" viewBox="-49 141 512 512"><g fill="#57be41"><path d="M108.2 456.1a44 44 0 1 0 0 88.1 44 44 0 0 0 0-88zm0 68a24 24 0 1 1 0-48 24 24 0 0 1 0 48z"/><path d="M408.3 249.9H357a10 10 0 1 0 0 20h51.3c16 0 29.4 10.8 33.5 25.6H357a10 10 0 0 0-10 10v89.9a10 10 0 0 0 10 10h86v84.9h-29.3a44 44 0 0 0-85.8 0h-.9V305.6a10 10 0 0 0-10-10h-80a10 10 0 0 0-10 10v80.3H41.3a10 10 0 1 0 0 20H227v84.4h-51a10 10 0 1 0 0 20h152a44 44 0 0 0 85.6 0H453a10 10 0 0 0 10-10V304.6a54.8 54.8 0 0 0-54.7-54.7zM247 315.6h60V393h-6.3a10 10 0 1 0 0 20h6.3v77.3h-60V315.6zM370.8 524a24 24 0 1 1 0-48 24 24 0 0 1 0 48zM367 385.4v-70h76v70h-76z"/><path d="M317 269.9a10 10 0 0 0 10-10 10 10 0 0 0-10-10 10 10 0 0 0-10 10 10 10 0 0 0 10 10zM36.3 490.3H-29V365.9H5a10 10 0 0 0 10-10v-56a10 10 0 0 0-10-10h-30.7a34.8 34.8 0 0 1 31.4-20H277a10 10 0 1 0 0-20H5.7a54.8 54.8 0 0 0-54.7 50v200.4a10 10 0 0 0 10 10h75.3a10 10 0 1 0 0-20zM-5 345.9h-24v-36h24v36z"/><path d="M5 385.9a10 10 0 0 0-10 10 10 10 0 0 0 10 10 10 10 0 0 0 7-17 10 10 0 0 0-7-3zM141 289.9a10 10 0 0 0-10 10v56a10 10 0 0 0 10 10h56a10 10 0 0 0 10-10v-56a10 10 0 0 0-10-10h-56zm46 56h-36v-36h36v36zM45 289.9a10 10 0 0 0-10 10v56a10 10 0 0 0 10 10h56a10 10 0 0 0 10-10v-56a10 10 0 0 0-10-10H45zm46 56H55v-36h36v36z"/></g></svg>