<svg xmlns="http://www.w3.org/2000/svg" version="1.2" viewBox="-49 141 512 512"><g fill="#57be41"><path d="M395.5 370.4H362l-31.2-73.6a79 79 0 0 0-73-48.2h-50.9a10 10 0 0 0 0 20h51a59 59 0 0 1 54.5 36l27.9 65.8H208.4v-73.2a10 10 0 0 0-20 0v73.2H51.5v-44c0-32 25.9-57.8 57.7-57.8H130a10 10 0 0 0 0-20h-20.7a77.8 77.8 0 0 0-77.7 77.7v44.1h-13A67.6 67.6 0 0 0-49 438v65.5a10 10 0 0 0 10 10h37a10 10 0 0 0 0-20h-27v-34H1.3a10 10 0 0 0 10-10v-36.8a10 10 0 0 0-10-10h-14.5a47.3 47.3 0 0 1 31.7-12.2h354.4v28a10 10 0 0 0 10 10H442c.7 3 1 6.2 1 9.5v55.5h-18.9a10 10 0 0 0 0 20H453a10 10 0 0 0 10-10v-65.5a67.6 67.6 0 0 0-67.5-67.5zm-404.2 69H-29v-1.5c0-5.4.9-10.5 2.5-15.3h17.8v16.8zm401.6-31v-18h2.6c15 0 28.4 7 37.1 18H393z"/><path d="M291 493.4a10 10 0 0 0-10 10 10 10 0 0 0 10 10 10 10 0 0 0 10-10 10 10 0 0 0-10-10zM253.3 493.4h-44.9v-24a10 10 0 0 0-20 0v24H136a10 10 0 0 0 0 20h117.3a10 10 0 0 0 0-20zM168.8 268.6a10 10 0 0 0 10-10 10 10 0 0 0-10-10 10 10 0 0 0-10 10 10 10 0 0 0 10 10zM157.6 437.2l22.5-.2a10 10 0 0 0-.1-20l-22.5.2a10 10 0 0 0 0 20h.1zM68 461.2a42.2 42.2 0 1 0 0 84.3 42.2 42.2 0 0 0 0-84.3zm0 64.2a22.2 22.2 0 1 1 0-44.3 22.2 22.2 0 0 1 0 44.3zM362.2 461.2a42.2 42.2 0 1 0 0 84.3 42.2 42.2 0 0 0 0-84.3zm0 64.2a22.2 22.2 0 1 1 0-44.3 22.2 22.2 0 0 1 0 44.3z"/></g></svg>